<?xml version="1.0" encoding="utf-8"?>
<!-- Generator: Adobe Illustrator 19.0.0, SVG Export Plug-In . SVG Version: 6.00 Build 0)  -->
<svg version="1.1" id="图层_1" xmlns="http://www.w3.org/2000/svg" xmlns:xlink="http://www.w3.org/1999/xlink" x="0px" y="0px"
	 viewBox="0 0 47 26.6" style="enable-background:new 0 0 47 26.6;" xml:space="preserve">
<style type="text/css">
	.st0{fill:url(#XMLID_55_);}
</style>
<linearGradient id="XMLID_55_" gradientUnits="userSpaceOnUse" x1="0.4598" y1="13.3201" x2="46.5057" y2="13.3201">
	<stop  offset="0" style="stop-color:#A491C4"/>
	<stop  offset="0.194" style="stop-color:#BAA0C9"/>
	<stop  offset="0.5521" style="stop-color:#DDBAD0"/>
	<stop  offset="0.833" style="stop-color:#F2CBD4"/>
	<stop  offset="1" style="stop-color:#F9D1D6"/>
</linearGradient>
<path id="XMLID_42_" class="st0" d="M40.3,26.3H7.5c-3.9,0-7-3.2-7-7.2c0-3.6,2.8-6.6,6.4-6.8c0-5.9,4.8-10.7,10.8-10.7
	c3.8,0,7.3,2,9.2,5.2c0.2,0.4,0.1,0.8-0.3,1c-0.4,0.2-0.8,0.1-1-0.3c-1.7-2.8-4.7-4.5-7.9-4.5c-5.1,0-9.3,4.2-9.3,9.3
	c0,0.2,0,0.4,0,0.6c0,0.2-0.1,0.5-0.2,0.6c-0.2,0.2-0.4,0.3-0.6,0.3c-0.2,0-0.2,0-0.3,0c-2.9,0-5.3,2.4-5.3,5.3
	c0,3.1,2.5,5.7,5.5,5.7h32.8c2.6,0,4.7-2.1,4.7-4.7s-2.1-4.7-4.7-4.7c-0.4,0-0.8-0.3-0.8-0.8s0.3-0.8,0.8-0.8c3.4,0,6.2,2.8,6.2,6.2
	S43.7,26.3,40.3,26.3z M39.1,13.6c0-4-3.3-7.3-7.3-7.3s-7.3,3.3-7.3,7.3s3.3,7.3,7.3,7.3S39.1,17.7,39.1,13.6z M37.6,13.6
	c0,3.2-2.6,5.8-5.8,5.8s-5.8-2.6-5.8-5.8s2.6-5.8,5.8-5.8S37.6,10.4,37.6,13.6z M33.4,4.7l0.2-2.4c0-0.4-0.3-0.8-0.7-0.8
	c-0.4,0-0.8,0.3-0.8,0.7l-0.2,2.4c0,0.4,0.3,0.8,0.7,0.8c0,0,0.1,0,0.1,0C33,5.4,33.3,5.1,33.4,4.7z M38.8,8.4l1.9-1.5
	c0.3-0.3,0.4-0.7,0.1-1.1c-0.3-0.3-0.7-0.4-1.1-0.1l-1.9,1.5c-0.3,0.3-0.4,0.7-0.1,1.1c0.1,0.2,0.4,0.3,0.6,0.3
	C38.5,8.6,38.7,8.5,38.8,8.4z M29.5,5.8c0.4-0.1,0.6-0.5,0.5-0.9l-1.2-4c-0.1-0.4-0.5-0.6-0.9-0.5c-0.4,0.1-0.6,0.5-0.5,0.9l1.2,4
	c0.1,0.3,0.4,0.5,0.7,0.5C29.3,5.8,29.4,5.8,29.5,5.8z M36.5,6l2-3.7c0.2-0.4,0.1-0.8-0.3-1c-0.4-0.2-0.8-0.1-1,0.3l-2,3.7
	c-0.2,0.4-0.1,0.8,0.3,1c0.1,0.1,0.2,0.1,0.4,0.1C36.1,6.4,36.4,6.3,36.5,6z M40.3,11.4l4-1.2c0.4-0.1,0.6-0.5,0.5-0.9
	c-0.1-0.4-0.5-0.6-0.9-0.5l-4,1.2c-0.4,0.1-0.6,0.5-0.5,0.9c0.1,0.3,0.4,0.5,0.7,0.5C40.1,11.5,40.2,11.4,40.3,11.4z"/>
</svg>
